\"Dennis, an American private eye, is sent to Germany to find out as much as possible about typical Germans and typically German behaviour. Disguised as a TV reporter he sets sail for Germany where we follow him interviewing a wide variety of people, from politicians and intellectuals to policemen, demonstrants and ordinary people in the street. All this, however, is not what the film is really about, for \\\"Deckname Dennis\\\" is actually a satirical documentary about all those extremely odd people, groups and societies whose attitudes and behaviour are far too outrageous for anybody to take seriously. Therefore ALL the documentary bits are real, i.e. the people really thought they were being interviewed by an American reporter, and so they gladly presented an insight into their beliefs, ideas and goals.\\\"


General
Format                           : Matroska
File size                        : 350 MiB
Duration                         : 1h 37mn
Overall bit rate                 : 499 Kbps
Movie name                       : Deckname Dennis
Writing application              : Lavf53.24.0
Writing library                  : Lavf53.24.0

Video
ID                               : 1
Format                           : AVC
Format/Info                      : Advanced Video Codec
Format profile                   : High@L4.1
Format settings, CABAC           : Yes
Format settings, ReFrames        : 3 frames
Format settings, GOP             : M=1, N=2
Codec ID                         : V_MPEG4/ISO/AVC
Duration                         : 1h 37mn
Bit rate                         : 425 Kbps
Nominal bit rate                 : 450 Kbps
Width                            : 512 pixels
Height                           : 296 pixels
Display aspect ratio             : 3:2
Original display aspect ratio    : 3:2
Frame rate mode                  : Variable
Frame rate                       : 25.000 fps
Color space                      : YUV
Chroma subsampling               : 4:2:0
Bit depth                        : 8 bits
Scan type                        : Progressive
Bits/(Pixel*Frame)               : 0.112
Stream size                      : 298 MiB (85%)
Writing library                  : x264 core 120 r2120
Encoding settings                : cabac=1 / ref=1 / deblock=1:0:0 / analyse=0x3:0x133 / me=hex / subme=7 / psy=1 / psy_rd=1.00:0.00 / mixed_ref=0 / me_range=16 / chroma_me=1 / trellis=1 / 8x8dct=1 / cqm=0 / deadzone=21,11 / fast_pskip=1 / chroma_qp_offset=-2 / threads=3 / sliced_threads=0 / nr=0 / decimate=0 / interlaced=0 / bluray_compat=0 / constrained_intra=0 / bframes=5 / b_pyramid=1 / b_adapt=2 / b_bias=0 / direct=3 / weightb=1 / open_gop=0 / weightp=2 / keyint=250 / keyint_min=25 / scenecut=40 / intra_refresh=0 / rc_lookahead=40 / rc=abr / mbtree=1 / bitrate=450 / ratetol=1.0 / qcomp=0.60 / qpmin=10 / qpmax=51 / qpstep=4 / vbv_maxrate=24000 / vbv_bufsize=24000 / nal_hrd=none / ip_ratio=1.40 / aq=1:1.00

Audio
ID                               : 2
Format                           : Vorbis
Format settings, Floor           : 1
Codec ID                         : A_VORBIS
Duration                         : 1h 37mn
Bit rate mode                    : Constant
Bit rate                         : 64.0 Kbps
Channel(s)                       : 2 channels
Sampling rate                    : 44.1 KHz
Bit depth                        : 16 bits
Compression mode                 : Lossy
Stream size                      : 44.8 MiB (13%)
Writing library                  : libVorbis (Schaufenugget) (20101101 (Schaufenugget))
Language                         : German

Menu
00:00:00.000                     : :Kapitel 01
00:05:00.000                     : :Kapitel 02
00:10:00.000                     : :Kapitel 03
00:15:00.000                     : :Kapitel 04
00:20:00.000                     : :Kapitel 05
00:25:00.000                     : :Kapitel 06
00:30:00.000                     : :Kapitel 07
00:35:00.000                     : :Kapitel 08
00:40:00.000                     : :Kapitel 09
00:45:00.000                     : :Kapitel 10
00:50:00.000                     : :Kapitel 11
00:55:00.000                     : :Kapitel 12
01:00:00.000                     : :Kapitel 13
01:05:00.000                     : :Kapitel 14
01:10:00.000                     : :Kapitel 15
01:15:00.000                     : :Kapitel 16
01:20:00.000                     : :Kapitel 17
01:25:00.000                     : :Kapitel 18
01:30:00.000                     : :Kapitel 19
01:35:00.000                     : :Kapitel 20
